#!OML:ASF F:\VICON\USERDATA\INSTALL\rory3\rory3.ASF
:FULLY-SPECIFIED
:DEGREES
47
root 0.39643408974713445 16.993429572959084 11.925475359441325 1.7117836623799092 -6.392931119399793 -4.661166682556342
lfemur -23.010018481400728 11.562806253597374 -12.460949410606066
ltibia 105.59049332673686
lfoot 1.4450851316864886 -7.701553119749968
ltoes -1.420596558775694
rfemur -17.08233776364516 8.04078631683149 34.52833772621585
rtibia 44.48040958306047
rfoot -5.994824875671464 -8.199873585638423
rtoes -0.5397560540475925
lowerback 16.20726492846363 0.929034929336208 3.8479020824664767
upperback -0.23273340154942568 3.3870246019176937 2.7962390517070093
thorax -9.534255294447844 1.0789840204163856 -0.6212040801394056
lowerneck -20.619855127579306 -3.8307757675723506 -2.3703529320137675
upperneck 12.503046300624732 -5.342466693013803 4.272519710613416
head 7.3546530920212625 -2.0095098607335364 1.303714780428868
lclavicle 2.9801537496917e-15 1.1901017953974073e-16
lhumerus -49.51952018251745 -9.904687258580198 96.75512975599807
lradius 116.27493733870212
lwrist 33.94027831630817
lhand -20.781699257385558 2.2296882253303
lfingers 7.125019999999999
lthumb 5.549487873892211 32.00099132146082
rclavicle 2.9801019661137072e-15 1.1898187584742083e-16
rhumerus -48.591577665125264 7.685851016998214 -96.22222595223272
rradius 113.91926854005894
rwrist -15.329597121182184
rhand -15.684404429316208 38.50886373778356
rfingers 7.125019999999999
rthumb 10.442373930954231 8.475214300126918
48
root 0.4075667024562407 17.05095167762105 13.061647580956922 1.9820126676765533 -5.932176601395573 -4.854984486828728
lfemur -27.114401354016458 11.704672749030184 -12.892878098136174
ltibia 106.3048849954148
lfoot 1.5640962113943697 -8.021524149822515
ltoes -4.223570669009593
rfemur -14.50362323116932 8.099642525815831 34.93446318773253
rtibia 44.416727031176464
rfoot -5.135388323973009 -8.07438506142125
rtoes -0.18041374725982307
lowerback 16.01632371615411 1.1017855190547374 4.252388356156041
upperback -0.34459067521996967 3.822313619980835 2.7216277848380708
thorax -9.517516444507756 1.2864402928952579 -0.9182031693616196
lowerneck -20.512361822896942 -3.924535436287142 -2.3143752320203177
upperneck 12.321091812433945 -5.614281572593461 4.326805705291678
head 7.321440440063058 -2.1134152332728227 1.2738099694999279
lclavicle 2.9801537496917e-15 1.1901017953974073e-16
lhumerus -51.308772024273416 -9.992283640259865 96.9382696597882
lradius 115.99266454036517
lwrist 33.97559196313934
lhand -20.784187377433597 2.294299081530416
lfingers 7.125019999999999
lthumb 5.54374806853123 32.09590709918171
rclavicle 2.9801019661137072e-15 1.1898187584742088e-16
rhumerus -46.112520475260006 8.822909994056374 -96.3730240503711
rradius 113.68944589170964
rwrist -15.322725669290758
rhand -15.638454729473224 38.59069357741215
rfingers 7.125019999999999
rthumb 10.420434130662567 8.44145632353662
49
root 0.4213907933333455 17.151584112686837 13.84863997751866 2.2008764031893895 -5.380173241733275 -5.127138542917236
lfemur -31.452068718070493 11.125654836613025 -13.820473687977914
ltibia 105.1457429528649
lfoot 0.5516573499715325 -8.750230339673315
ltoes -6.897593163725282
rfemur -13.116894868222671 7.3647569733463225 34.517191820492485
rtibia 43.856537501268775
rfoot -3.4510457837364736 -7.764613372247242
rtoes 0.026533632846167943
lowerback 15.77508274792684 1.2454913022844656 4.492892295399854
upperback -0.5156744743180078 4.121956859505654 2.5913098815328803
thorax -9.486434286221632 1.4502242256768838 -1.2082316061983338
lowerneck -20.41279340584512 -4.052895512147653 -2.2912977088017206
upperneck 12.125705722259191 -5.910004172596251 4.400270785845788
head 7.282173605222309 -2.2386617650759484 1.2330554007916277
lclavicle 2.9801537496917e-15 1.1901017953974073e-16
lhumerus -52.19372767784638 -10.181080555082984 97.18494970150033
lradius 115.69087358097619
lwrist 33.910179250764735
lhand -20.8560369233808 2.3272956080404934
lfingers 7.125019999999999
lthumb 5.487285169848947 32.17167480394199
rclavicle 2.980101966113707e-15 1.1898187584742066e-16
rhumerus -43.699471495051 9.939016677399643 -96.35171559394601
rradius 113.47443454167897
rwrist -15.392211849352575
rhand -15.612906415130682 38.60685235892451
rfingers 7.125019999999999
rthumb 10.429292134244948 8.410420432426843
50
root 0.4362865168493215 17.27899007843871 14.258335533258716 2.321993349657806 -4.8835361653027265 -5.4451137471863404
lfemur -33.620732188647665 10.543859647751223 -14.272785466667754
ltibia 102.43060655491614
lfoot -1.5184530711731334 -9.073488906447885
ltoes -9.188418339256865
rfemur -11.637418044174638 6.269511465243415 33.73702689466614
rtibia 43.24899471465098
rfoot -1.4726618268259974 -7.534005401802261
rtoes 0.19565799463977018
lowerback 15.505690513283838 1.3806545399864851 4.752067296235301
upperback -0.7118794471531202 4.323925420935039 2.4413348371209302
thorax -9.416096633878551 1.6103162955592267 -1.4176074568768686
lowerneck -20.197358120799386 -4.078195729904207 -2.24094820140412
upperneck 11.966064820017962 -6.232684221850925 4.481567523880802
head 7.273726215412387 -2.3486797331536726 1.2114916288782247
lclavicle 2.9801537496917e-15 1.1901017953974073e-16
lhumerus -53.24264250542217 -10.548840579607813 97.34196191743291
lradius 115.2515246191147
lwrist 33.95066336426855
lhand -20.87761769452475 2.4540782365927685
lfingers 7.125019999999999
lthumb 5.449564769533667 32.2995706872182
rclavicle 2.9801019661137064e-15 1.189818758474203e-16
rhumerus -41.681111599192334 10.882702386397886 -96.21812073464578
rradius 113.22984575753826
rwrist -15.375577357729286
rhand -15.60724623655365 38.61893283694407
rfingers 7.125019999999999
rthumb 10.508237567126207 8.456278636189534
51
root 0.4582474023624939 17.464762457677924 15.43196702127498 2.4377808135988968 -4.047715642949952 -5.5412195998961735
lfemur -35.72651152396371 9.484466537832214 -15.170236148783363
ltibia 98.02220238735916
lfoot -0.4152532660681718 -8.165672213852462
ltoes -10.94607105017211
rfemur -10.587110112721161 5.274716884566678 33.1007082098648
rtibia 42.88477837086242
rfoot 0.8163729104962663 -7.27728757854794
rtoes 0.84370359945715
lowerback 15.160693609274047 1.4662930562291843 4.9978552632136495
upperback -0.9193880871549358 4.4114129746597115 2.2771332854285022
thorax -9.34856750850055 1.7155520140162208 -1.617322715776876
lowerneck -20.038650777431894 -4.127702461250906 -2.2148500124385064
upperneck 11.91856265659577 -6.542920613525459 4.562917901560162
head 7.258795119819476 -2.4565818087857103 1.1903021880048752
lclavicle 2.9801537496917e-15 1.1901017953974073e-16
lhumerus -53.24564265121522 -10.443598037653159 97.5583532124787
lradius 114.7691663421342
lwrist 33.9561576724669
lhand -20.882197377926417 2.557443987357617
lfingers 7.125019999999999
lthumb 5.427002120162518 32.44957906809196
rclavicle 2.9801019661137056e-15 1.1898187584742004e-16
rhumerus -40.1274591869787 11.672518061510416 -96.01654637697375
rradius 112.95581016006659
rwrist -15.3181367321193
rhand -15.634315414447489 38.56343915981076
rfingers 7.125019999999999
rthumb 10.546286746611164 8.492397757383554
52
root 0.4755580443007605 17.641659035750987 15.105944374099629 2.3421761622595527 -3.454599932146798 -5.648998028857513
lfemur -35.659607500679456 8.484570011657908 -15.734139471104722
ltibia 91.72515736842774
lfoot -0.6588887872707658 -8.290637546783598
ltoes -11.784770925795105
rfemur -8.335408081072378 4.707555890512369 33.0604117631795
rtibia 42.59637198087681
rfoot 3.1246983338166974 -6.937304409865356
rtoes 1.8948899906640655
lowerback 14.73720006433149 1.502091164116346 5.243329262150817
upperback -1.1677480112410117 4.374137555469446 2.079095627697834
thorax -9.261172880595552 1.769198563123843 -1.7500545588798557
lowerneck -19.878141377827227 -4.2013798558834665 -2.2132746886352708
upperneck 11.937445527508551 -6.82700319466797 4.638042264299313
head 7.247237203091998 -2.5530422040414797 1.1795661921758513
lclavicle 2.9801537496917e-15 1.1901017953974073e-16
lhumerus -54.05983073664291 -10.512539858959313 97.41170243197752
lradius 114.3843890507069
lwrist 34.014138807869394
lhand -20.80585459614892 2.721785610522392
lfingers 7.125019999999999
lthumb 5.439040062516524 32.56293166458642
rclavicle 2.9801019661137052e-15 1.1898187584741977e-16
rhumerus -38.96715453131536 12.386484867329226 -95.79236063445859
rradius 112.71615885314489
rwrist -15.156776954981957
rhand -15.611478295230656 38.55647954855156
rfingers 7.125019999999999
rthumb 10.617911156264372 8.563026851163434
53
root 0.495849386612006 17.829351826414534 15.27854343759333 2.3166270031339553 -2.763106794985254 -5.436026298634152
lfemur -36.75916728573479 7.085060477294328 -16.930893638238462
ltibia 83.6023959435291
lfoot -0.45728128028328374 -8.732169019033176
ltoes -12.017637272083473
rfemur -6.111779395561101 4.543971027342787 33.17391405681001
rtibia 42.0225593869466
rfoot 5.38631264965832 -6.534690530093648
rtoes 3.3013008967978394
lowerback 14.229720729201105 1.5366113096467053 5.326984009962524
upperback -1.401224964377804 4.360207777587981 1.8927939527425464
thorax -9.151319839418491 1.8003188782513506 -1.8531353337098242
lowerneck -19.698155262468237 -4.228880759112191 -2.2085600432151744
upperneck 12.057104809564038 -7.010316412974409 4.770958946125683
head 7.249599308672748 -2.625255700438282 1.1841359183181606
lclavicle 2.9801537496917e-15 1.1901017953974073e-16
lhumerus -54.36670701199232 -10.280741941441391 97.19882028712483
lradius 114.12399375798832
lwrist 34.03804219324283
lhand -20.78682708647258 2.786146023357475
lfingers 7.125019999999999
lthumb 5.46859932065394 32.62465419948508
rclavicle 2.980101966113705e-15 1.189818758474194e-16
rhumerus -38.04931763903109 13.097094228139989 -95.56801206068093
rradius 112.57743238189475
rwrist -15.06533603830231
rhand -15.643394152496418 38.50152337182008
rfingers 7.125019999999999
rthumb 10.569196680031718 8.544241215987928
54
root 0.518445126542146 18.01993617055459 16.35909517240787 2.34745743928807 -1.959119759693649 -5.052055910906591
lfemur -36.34244470278431 5.880857846850972 -17.727575528234212
ltibia 74.22939163219974
lfoot 0.12241223298567105 -8.59635949649389
ltoes -11.503915657860649
rfemur -5.288931041724529 4.315908486688334 32.82491933865322
rtibia 41.22211100817941
rfoot 7.443437077406324 -6.039102841635352
rtoes 3.9880047233910845
lowerback 13.756489034876676 1.613763401590651 5.3519275536522395
upperback -1.6519472919605294 4.273725520983081 1.6819627832496815
thorax -9.07682795506536 1.7765854517418043 -1.9894916028669987
lowerneck -19.64618186512723 -4.375167114590349 -2.2565794588731825
upperneck 12.158193365553075 -7.165820646748076 4.860580301856302
head 7.246589805683877 -2.7060284619783164 1.1826727466209632
lclavicle 2.9801537496917e-15 1.1901017953974073e-16
lhumerus -55.1110121189632 -10.275505820579047 96.8071392198129
lradius 113.91484607991801
lwrist 34.00859953949267
lhand -20.73702245582356 2.8492495976938375
lfingers 7.125019999999999
lthumb 5.5413381916389675 32.68803825027825
rclavicle 2.980101966113704e-15 1.1898187584741908e-16
rhumerus -37.407428211197654 13.801860858264604 -95.37847771753502
rradius 112.57290835819369
rwrist -15.189003959180749
rhand -15.61026742737424 38.53321218957092
rfingers 7.125019999999999
rthumb 10.629553100546445 8.574081335825946
